<?xml version="1.0" encoding="utf-8"?>
<!-- Generator: Adobe Illustrator 23.0.2, SVG Export Plug-In . SVG Version: 6.00 Build 0)  -->
<svg version="1.1" id="Capa_1" xmlns="http://www.w3.org/2000/svg" xmlns:xlink="http://www.w3.org/1999/xlink" x="0px" y="0px"
	 viewBox="0 0 32 32" style="enable-background:new 0 0 32 32;" xml:space="preserve">
<style type="text/css">
	.st0{fill:#19559E;}
</style>
<g>
	<g>
		<path class="st0" d="M14,19.8c0,1.6,0,3.1,0,4.7c0,0.5-0.2,0.7-0.7,0.7c-1.1,0-2.2,0-3.3,0c-0.5,0-0.7-0.2-0.7-0.7
			c0-5.7,0-11.3,0-17C9.3,7,9.5,6.8,10,6.8c1.3,0,2.6,0,4,0c1.2,0,2.3,0,3.5,0c3.4,0,6.1,2.8,6.1,6.1s-2.8,6.1-6.1,6.1
			c-0.9,0-1.8,0-2.8,0C14.2,19.1,14,19.3,14,19.8z M14,11.3c0,0.8,0,1.6,0,2.5c0,0.3,0,0.6,0,0.8c0,0.5,0.2,0.7,0.7,0.7
			c0.5,0,1,0,1.5,0c1.3,0,2.3-1,2.3-2.3s-1-2.3-2.3-2.3c-0.5,0-1,0-1.5,0C14.2,10.6,14,10.8,14,11.3z"/>
		<path class="st0" d="M7.9,6.1c0,6.6,0,13.1,0,19.7c0,0.5,0.2,0.7,0.7,0.7c2.2,0,4.5,0,6.7,0c0,1.8,0,3.6,0,5.5
			c-4.4,0-8.8,0-13.3,0c0-10.7,0-21.3,0-32c4.4,0,8.8,0,13.3,0c0,1.8,0,3.6,0,5.5c-2.2,0-4.5,0-6.7,0C8.1,5.5,7.9,5.7,7.9,6.1z
			 M6.1,2.7c0-0.8-0.6-1.4-1.4-1.4C4,1.4,3.4,2,3.4,2.7S4,4.1,4.8,4.1C5.5,4.1,6.1,3.5,6.1,2.7z M4.8,27.9c-0.8,0-1.4,0.6-1.4,1.4
			s0.6,1.4,1.4,1.4s1.4-0.6,1.4-1.4C6.1,28.5,5.5,27.9,4.8,27.9z"/>
		<path class="st0" d="M24.9,13c0-4.1-3.4-7.5-7.5-7.5c-0.2,0-0.5,0-0.7,0c0-1.8,0-3.6,0-5.5c4.4,0,8.8,0,13.3,0c0,10.7,0,21.3,0,32
			c-4.4,0-8.8,0-13.3,0c0-3.8,0-7.7,0-11.5c0.2,0,0.5,0,0.7,0C21.6,20.5,24.9,17.1,24.9,13z M25.9,29.3c0,0.8,0.6,1.4,1.4,1.4
			s1.4-0.6,1.4-1.4s-0.6-1.4-1.4-1.4S25.9,28.5,25.9,29.3z M27.2,4.1c0.8,0,1.4-0.6,1.4-1.4S28,1.4,27.2,1.4S25.9,2,25.9,2.7
			C25.9,3.5,26.5,4.1,27.2,4.1z"/>
	</g>
</g>
</svg>
