<?xml version="1.0" encoding="utf-8"?>
<!-- Generator: Adobe Illustrator 23.0.2, SVG Export Plug-In . SVG Version: 6.00 Build 0)  -->
<svg version="1.1" id="Capa_1" xmlns="http://www.w3.org/2000/svg" xmlns:xlink="http://www.w3.org/1999/xlink" x="0px" y="0px"
	 viewBox="0 0 600 600" style="enable-background:new 0 0 600 600;" xml:space="preserve">
<style type="text/css">
	.st0{fill:#FFFFFF;}
</style>
<g>
	<path class="st0" d="M599.89,299.4c0,43.2-0.2,86.4,0.04,129.6c0.53,96.45-74.58,171.35-171.1,170.99
		c-86.4-0.33-172.8,0.33-259.2-0.19C73.86,599.22,1.39,527.34,0.56,431.58c-0.77-89.06-0.73-178.14-0.01-267.2
		C1.27,75.65,75.16,1.4,163.78,0.6c90.76-0.82,181.54-0.82,272.3,0.07c89.5,0.87,162.35,74.37,163.62,164.03
		c0.63,44.89,0.11,89.8,0.11,134.69C599.83,299.4,599.86,299.4,599.89,299.4z M551.88,300.31c-0.01,0-0.02,0-0.02,0
		c0-43.2,0.29-86.4-0.07-129.6c-0.59-70.53-51.32-121.75-121.92-122.19c-87.85-0.55-175.71-0.51-263.56,0.01
		c-64.55,0.38-117.4,53.05-117.8,117.48c-0.54,88.34-0.57,176.68,0.04,265.02c0.48,69.16,52.12,120.43,121.1,120.75
		c86.64,0.4,173.28-0.09,259.92,0.19c68.98,0.22,122.65-53.16,122.34-122.06C551.72,386.71,551.88,343.51,551.88,300.31z"/>
	<path class="st0" d="M156.3,299.75c-1-76.8,63.29-142.3,140.77-143.4c80.86-1.15,145.84,61.84,146.86,142.37
		c0.99,78.17-62.39,144.09-139.64,145.24C221.64,445.2,157.38,382.58,156.3,299.75z M299.56,395.95
		c54.42-0.2,96.68-42.93,96.37-97.45c-0.29-51-43.83-94.38-94.53-94.15c-55.28,0.24-97.08,42.2-97.07,97.41
		C204.35,352.82,248.15,396.14,299.56,395.95z"/>
	<path class="st0" d="M491.94,144.16c-0.07,20.08-16.21,36.11-36.2,35.96c-19.63-0.15-35.55-16.18-35.59-35.84
		c-0.03-19.93,16.14-35.97,36.23-35.94C475.94,108.38,492.01,124.57,491.94,144.16z"/>
</g>
</svg>
