<?xml version="1.0" encoding="utf-8"?>
<!-- Generator: Adobe Illustrator 23.0.2, SVG Export Plug-In . SVG Version: 6.00 Build 0)  -->
<svg version="1.1" id="Capa_1" xmlns="http://www.w3.org/2000/svg" xmlns:xlink="http://www.w3.org/1999/xlink" x="0px" y="0px"
	 viewBox="0 0 600 600" style="enable-background:new 0 0 600 600;" xml:space="preserve">
<style type="text/css">
	.st0{fill:#FFFFFF;}
</style>
<g>
	<path class="st0" d="M308.7,583.6c-49.3,0.7-93.3-9.8-134.9-30.4c-5.7-2.8-10.7-3-16.7-1.1c-46.8,15.1-93.6,29.9-140.5,44.7
		c-4.7,1.5-10,4.5-14.5-0.5c-4.1-4.6-1.1-9.3,0.4-13.8c15.2-44.7,30.4-89.4,45.9-134.1c2.1-6,1.6-10.7-1.5-16.3
		C15,374.6,2.7,312.6,14.3,248.1C34.9,133.6,101.1,55,211.3,17c143.9-49.6,301.1,19.6,363.4,157.6
		c72.1,159.6-16.4,349.3-185.4,397.4C362.1,579.7,334.4,584.3,308.7,583.6z M93.2,506.5c4,1.8,6.5,0,9.2-0.8
		c20.7-6.5,41.5-12.6,62-19.7c7-2.4,12.2-1.4,18.1,2.4c27.4,17.5,57.6,28.3,89.7,32.6c48.1,6.6,94-1.3,138-22.4
		c108.6-52.1,158.6-186.8,109.7-296.8C469.3,88.4,342,34.1,225.1,76.1C83.3,127.1,27.6,296.3,111.9,421c5.2,7.7,5.8,14.3,2.8,22.6
		C107.2,464.5,100.3,485.5,93.2,506.5z"/>
	<path class="st0" d="M157.6,228.9c-0.3-11.5,1.7-22.7,6-33.2c12.9-32.1,29.5-37.6,62.3-39.6c7.7-0.5,13.6,4.3,16.8,11.3
		c8.8,19.8,17.4,39.7,25.6,59.8c1.9,4.7,1.4,10.1-0.9,15.1c-3.1,6.9-7.5,12.8-12.4,18.5c-9.6,11.2-9.8,11.3-1,22.7
		c21.8,28,47.1,51.7,79.7,66.9c6.9,3.2,11.6,3.5,16.3-3.4c5.1-7.5,11.4-14.1,16.9-21.3c6-7.8,13.9-9.8,22.5-6.3
		c21,8.6,41.4,18.5,61.5,29c5.4,2.8,7.5,7.7,7.8,13.6c1.8,38.2-21.8,64.1-60.5,69.2c-41.7,5.5-79.4-10.8-114.1-31.4
		c-53.5-31.8-92.5-77.7-118.8-134.1C159.8,254.2,157.3,241.7,157.6,228.9z"/>
</g>
</svg>
