<?xml version="1.0" encoding="utf-8"?>
<!-- Generator: Adobe Illustrator 23.0.2, SVG Export Plug-In . SVG Version: 6.00 Build 0)  -->
<svg version="1.1" id="Capa_1" xmlns="http://www.w3.org/2000/svg" xmlns:xlink="http://www.w3.org/1999/xlink" x="0px" y="0px"
	 viewBox="0 0 600 600" style="enable-background:new 0 0 600 600;" xml:space="preserve">
<style type="text/css">
	.st0{fill:#FFFF00;}
</style>
<g>
	<path class="st0" d="M252.84,493.57c0,32.54,0,65.08,0,97.61c0,7.2-0.01,7.21-7.24,5.84c-65.9-12.5-121.77-43.29-167.11-92.69
		C36.2,458.27,10.18,404.06,2.63,342.07c-12.05-99,17.29-184.69,88.18-255.03c46.76-46.41,103.69-74.09,169.1-82.2
		C350.65-6.42,431.19,18,499.8,78.78c49.64,43.96,81.05,99.06,93.96,164.08c13.27,66.8,5.62,131.6-25.43,192.32
		c-45.3,88.59-117.63,142.51-215.35,162.04c-6.24,1.25-6.35,1.07-6.35-5.39c-0.01-65.6,0.06-131.2-0.14-196.8
		c-0.02-5.4,1.51-6.58,6.68-6.49c19.48,0.32,38.98,0.02,58.46,0.22c3.71,0.04,5.17-1.02,5.71-4.69
		c3.81-25.78,7.72-51.54,11.81-77.28c0.69-4.34-1-4.87-4.66-4.85c-24.19,0.12-48.37-0.04-72.56,0.18c-4.48,0.04-5.47-1.38-5.4-5.61
		c0.25-16.35,0.07-32.71,0.12-49.07c0.09-31.21,15.99-47.62,47.3-48.55c11.65-0.35,23.32-0.23,34.97-0.07
		c3.38,0.04,4.5-0.93,4.48-4.39c-0.14-21.75-0.12-43.5-0.06-65.25c0.01-2.82-0.53-4.28-3.85-4.76c-23.79-3.44-47.66-6.05-71.71-4.93
		c-28.3,1.32-54.03,9.71-74.44,30.46c-18.53,18.83-27.06,42.24-29.46,68.01c-2.39,25.68-0.56,51.47-1.03,77.2
		c-0.14,7.82,0.71,6.84-7.1,6.85c-21.4,0.04-42.81,0.12-64.21-0.08c-3.98-0.04-4.96,1.19-4.93,5.01
		c0.15,25.58,0.18,51.16-0.04,76.73c-0.04,4.38,1.59,5.1,5.43,5.07c21.92-0.15,43.85,0.04,65.77-0.17c4.22-0.04,5.19,1.29,5.17,5.3
		C252.78,427.1,252.85,460.33,252.84,493.57z"/>
</g>
</svg>
