<?xml version="1.0" encoding="utf-8"?>
<!-- Generator: Adobe Illustrator 23.0.2, SVG Export Plug-In . SVG Version: 6.00 Build 0)  -->
<svg version="1.1" id="Layer_1" xmlns="http://www.w3.org/2000/svg" xmlns:xlink="http://www.w3.org/1999/xlink" x="0px" y="0px"
	 viewBox="0 0 798.48 432.73" style="enable-background:new 0 0 798.48 432.73;" xml:space="preserve">
<style type="text/css">
	.st0{fill:#FFFFFF;}
</style>
<g>
	<g>
		<path class="st0" d="M381.66,169.98c0,13.37,0,26.73,0,40.1c0,4.19-1.74,5.93-5.93,5.93c-9.32,0-18.65,0-27.97,0
			c-4.19,0-5.93-1.74-5.93-5.93c0-48.53,0-97.05,0-145.57c0-4.19,1.74-5.93,5.93-5.93c11.3,0,22.6,0,33.9,0c9.87,0,19.74,0,29.6,0
			c29.13,0,52.74,23.61,52.74,52.74c0,29.13-23.61,52.74-52.74,52.74c-7.89,0-15.78,0-23.67,0
			C383.4,164.05,381.66,165.79,381.66,169.98z M381.66,97.15c0,7.04,0,14.08,0,21.13c0,2.4,0,4.81,0,7.21
			c0,4.19,1.74,5.93,5.93,5.93c4.31,0,8.61,0,12.92,0c11.1,0,20.1-9,20.1-20.1s-9-20.1-20.1-20.1c-4.31,0-8.62,0-12.92,0
			C383.4,91.22,381.66,92.96,381.66,97.15z"/>
		<path class="st0" d="M330.11,52.79c0,56.33,0,112.67,0,169c0,4.2,1.74,5.93,5.93,5.93c19.11,0,38.23,0,57.34,0
			c0,15.62,0,31.24,0,46.87c-37.94,0-75.87,0-113.81,0c0-91.53,0-183.07,0-274.6c37.94,0,75.87,0,113.81,0c0,15.62,0,31.24,0,46.86
			c-19.11,0-38.22,0-57.34,0C331.85,46.86,330.11,48.6,330.11,52.79z M314.72,23.43c0-6.47-5.25-11.72-11.71-11.72
			c-6.47,0-11.72,5.25-11.72,11.72c0,6.47,5.25,11.72,11.72,11.72C309.47,35.15,314.72,29.9,314.72,23.43z M303,239.45
			c-6.47,0-11.72,5.24-11.72,11.71c0,6.47,5.25,11.72,11.72,11.72c6.47,0,11.71-5.25,11.71-11.72
			C314.72,244.69,309.47,239.45,303,239.45z"/>
		<path class="st0" d="M475.72,111.32c0-35.6-28.86-64.45-64.46-64.45c-2.05,0-4.11,0-6.17,0c0-15.62,0-31.24,0-46.86
			c37.93,0,75.87,0,113.81,0c0,91.53,0,183.06,0,274.6c-37.93,0-75.87,0-113.81,0c0-32.94,0-65.89,0-98.83c2.06,0,4.11,0,6.17,0
			C446.87,175.77,475.72,146.91,475.72,111.32z M483.76,251.16c0,6.47,5.25,11.72,11.72,11.72s11.72-5.25,11.72-11.72
			c0-6.47-5.25-11.71-11.72-11.71S483.76,244.69,483.76,251.16z M495.47,35.15c6.47,0,11.72-5.25,11.72-11.72
			c0-6.47-5.25-11.72-11.72-11.72s-11.72,5.25-11.72,11.72C483.76,29.9,489,35.15,495.47,35.15z"/>
	</g>
	<g>
		<path class="st0" d="M31.74,401.19c-1.77,0-2.5,0.73-2.5,2.5c0,7.82,0,15.65,0,23.47c0,1.77-0.73,2.5-2.5,2.5
			c-8.08,0-16.16,0-24.25,0c-1.77,0-2.5-0.73-2.5-2.5c0-32.48,0-64.95,0-97.43c0-1.76,0.73-2.5,2.5-2.5c14.87,0,29.75,0,44.62,0
			c6.3,0,9.47,0.37,12.73,1.33c3.26,0.96,6.63,2.53,9.95,5.75c3.32,3.22,6.61,8.11,8.76,13.31c2.15,5.2,3.17,10.71,3.13,16.75
			c-0.04,6.04-1.13,12.61-3.62,18.16c-2.48,5.55-6.35,10.09-10.69,13.35c-4.34,3.27-9.15,5.26-14.52,5.3
			C45.82,401.19,38.78,401.19,31.74,401.19z M47.54,375.06c1.98-1.24,3.51-3.05,4.43-5.2c0.92-2.15,1.24-4.62,0.98-7.06
			c-0.26-2.44-1.1-4.85-2.35-6.72c-1.25-1.87-2.92-3.2-4.54-4c-1.62-0.8-3.18-1.09-6.51-1.09c-2.6,0-5.21,0-7.81,0
			c-1.77,0-2.5,0.74-2.5,2.5c0,7.01,0,14.02,0,21.03c0,1.77,0.73,2.5,2.5,2.5c2.6,0,5.2,0,7.81,0
			C43.13,376.95,45.56,376.29,47.54,375.06z"/>
		<path class="st0" d="M315.91,330.51c0.15-1.79-0.54-2.59-2.33-2.7c-24.31-1.53-33.19-0.04-39.77,2.21
			c-6.8,2.33-11.15,5.47-14.33,9.71s-5.21,9.6-5.82,15.13c-0.6,5.53,0.22,11.22,2.7,16.31c2.49,5.09,6.64,9.58,11.75,12.91
			c5.12,3.33,11.2,5.5,15.46,7.79c4.26,2.29,6.7,4.7,7.49,7.41c0.79,2.72-0.06,5.76-4.04,8.02c-3.73,2.12-10.19,3.57-23.1,0.46
			c-1.91-0.46-2.87,0.22-3.07,2.17c-0.67,6.35-1.33,12.71-2,19.06c-0.19,1.76,0.47,2.56,2.23,2.75c19.11,1.98,30.69,0.77,38.71-1.3
			c8.36-2.16,12.85-5.25,15.99-9.93c3.14-4.68,4.92-10.96,5.07-17.16c0.14-6.2-1.35-12.33-3.91-17.16
			c-2.56-4.83-6.17-8.36-10.79-11.05c-4.61-2.69-10.21-4.53-14.41-6.53c-4.2-2-7-4.16-8.34-6.8c-1.34-2.65-1.21-5.78,0.33-8.08
			c1.54-2.3,4.48-3.75,9.51-4.22c4.42-0.41,10.45-0.06,17.69,2.72c2.04,0.78,3.2,0.05,3.38-2.13
			C314.83,343.58,315.37,337.05,315.91,330.51z"/>
		<path class="st0" d="M713.63,329.73c0-1.76,0.73-2.5,2.5-2.5c12.45,0,24.91,0,37.36,0c4.98,0,9.32,0.51,14.16,2.07
			c4.85,1.56,10.21,4.18,14.99,8.48c4.79,4.3,9.01,10.28,11.75,17c2.74,6.71,3.99,14.17,4.08,22.15c0.09,7.98-0.98,16.51-3.4,23.68
			c-2.42,7.18-6.18,13.01-12.64,18.27c-6.46,5.26-15.61,9.94-30.37,10.78c-11.98,0-23.96,0-35.93,0c-1.77,0-2.5-0.73-2.5-2.5
			C713.63,394.68,713.63,362.2,713.63,329.73z M741.65,403.43c0,1.77,0.74,2.51,2.51,2.5c4.03-0.02,8.71-1.18,12.3-2.83
			c4.36-2.01,7.1-4.76,9.06-8.73c1.97-3.97,3.16-9.16,3.46-14.16c0.29-5-0.32-9.81-1.63-13.74c-1.31-3.93-3.31-6.98-5.82-9.34
			c-2.51-2.36-5.54-4.03-8.32-4.9c-2.37-0.75-4.57-0.93-9.03-0.96c-1.78-0.01-2.52,0.72-2.52,2.5
			C741.65,370.31,741.65,386.87,741.65,403.43z"/>
		<path class="st0" d="M462.07,383.52c-1.01-1.82-3.12-1.27-3.12,0.81c0,14.26,0,28.53,0,42.8c0,1.77-0.73,2.5-2.5,2.5
			c-6.85,0-13.7,0-20.55,0c-1.77,0-2.5-0.73-2.5-2.5c0-32.47,0-64.94,0-97.4c0-1.76,0.73-2.5,2.5-2.5c7.18,0,14.37,0,21.55,0
			c1.08,0,1.69,0.37,2.2,1.31c6.98,13,13.96,25.99,20.95,38.98c1.23,2.29,3.17,2.29,4.4,0c6.98-13,13.96-25.99,20.95-38.98
			c0.51-0.95,1.12-1.31,2.2-1.31c7.18,0,14.37,0,21.55,0c1.77,0,2.5,0.73,2.5,2.5c0,32.47,0,64.94,0,97.4c0,1.77-0.73,2.5-2.5,2.5
			c-6.85,0-13.7,0-20.55,0c-1.77,0-2.5-0.73-2.5-2.5c0-14.27,0-28.53,0-42.8c0-2.08-2.11-2.63-3.12-0.81
			c-6.18,11.13-12.36,22.25-18.55,33.38c-1.25,2.25-3.12,2.25-4.37,0C474.44,405.78,468.25,394.65,462.07,383.52z"/>
		<path class="st0" d="M400.6,427.13c0-32.47,0-64.94,0-97.4c0-1.76,0.73-2.5,2.5-2.5c7.91,0,15.82,0,23.73,0
			c1.77,0,2.5,0.73,2.5,2.5c0,32.47,0,64.94,0,97.4c0,1.77-0.73,2.5-2.5,2.5c-7.91,0-15.82,0-23.73,0
			C401.33,429.63,400.6,428.89,400.6,427.13z"/>
		<path class="st0" d="M341.67,351.67c-6.45,0-12.89,0-19.34,0c-1.76,0-2.5-0.73-2.5-2.5c0-6.48,0-12.96,0-19.45
			c0-1.76,0.73-2.5,2.5-2.5c24.21,0,48.41,0,72.61,0c1.77,0,2.5,0.73,2.5,2.5c0,6.48,0,12.97,0,19.45c0,1.77-0.73,2.5-2.5,2.5
			c-6.29,0-12.58,0-18.87,0c-1.77,0-2.5,0.73-2.5,2.5c0,24.33,0,48.66,0,72.99c0,1.77-0.73,2.5-2.5,2.5c-8.13,0-16.27,0-24.4,0
			c-1.77,0-2.5-0.73-2.5-2.5c0-24.33,0-48.66,0-72.99C344.17,352.4,343.44,351.67,341.67,351.67z"/>
		<path class="st0" d="M214.5,328.86c12.09,32.47,24.18,64.95,36.27,97.43c0.8,2.15-0.05,3.37-2.34,3.37c-8.26,0-16.52,0-24.79,0
			c-1.26,0-1.9-0.45-2.34-1.62c-1.58-4.21-3.16-8.42-4.73-12.63c-0.44-1.18-1.08-1.62-2.34-1.62c-9.73,0-19.46,0-29.18,0
			c-1.31,0-1.96,0.47-2.37,1.71c-1.37,4.15-2.73,8.29-4.1,12.44c-0.41,1.25-1.06,1.72-2.37,1.72c-8.01,0-16.01,0-24.02,0
			c-2.29,0-3.13-1.22-2.34-3.36c11.96-32.48,23.91-64.95,35.87-97.43c0.44-1.19,1.08-1.63,2.34-1.63c8.04,0,16.07,0,24.11,0
			C213.42,327.23,214.06,327.68,214.5,328.86z M206.16,386.65c-1.77-4.93-3.54-9.86-5.32-14.78c-0.33-0.92-1.19-0.94-1.56-0.03
			c-1.98,4.92-3.97,9.84-5.96,14.76c-0.58,1.44-0.01,2.29,1.55,2.29c3.24,0,6.48,0,9.72,0
			C206.11,388.88,206.67,388.07,206.16,386.65z"/>
		<path class="st0" d="M649.85,427.16c0-32.48,0-64.95,0-97.43c0-1.76,0.73-2.5,2.5-2.5c7.53,0,15.06,0,22.59,0
			c1.77,0,2.5,0.73,2.5,2.5c0,24.62,0,49.23,0,73.84c0,1.77,0.73,2.5,2.5,2.5c9.15,0,18.29,0,27.44,0c1.77,0,2.5,0.73,2.5,2.5
			c0,6.2,0,12.39,0,18.59c0,1.77-0.73,2.5-2.5,2.5c-18.34,0-36.68,0-55.02,0C650.59,429.65,649.85,428.93,649.85,427.16z"/>
		<path class="st0" d="M84.88,427.16c0-32.48,0-64.95,0-97.43c0-1.76,0.73-2.5,2.5-2.5c7.53,0,15.06,0,22.59,0
			c1.77,0,2.5,0.73,2.5,2.5c0,24.62,0,49.23,0,73.84c0,1.77,0.73,2.5,2.5,2.5c9.15,0,18.29,0,27.44,0c1.77,0,2.5,0.73,2.5,2.5
			c0,6.2,0,12.39,0,18.59c0,1.77-0.73,2.5-2.5,2.5c-18.34,0-36.68,0-55.02,0C85.62,429.65,84.88,428.93,84.88,427.16z"/>
		<path class="st0" d="M561.07,424.43c-24.86-16.96-31.27-50.86-14.31-75.73c16.96-24.86,50.86-31.28,75.72-14.31
			c24.87,16.96,31.27,50.86,14.31,75.73C619.84,434.98,585.94,441.39,561.07,424.43z M609.01,395.59c9.2-9.76,8.74-25.13-1.02-34.32
			c-9.76-9.2-25.12-8.74-34.32,1.01c-9.2,9.76-8.74,25.12,1.02,34.32C584.44,405.8,599.81,405.35,609.01,395.59z"/>
	</g>
</g>
</svg>
