<?xml version="1.0" encoding="utf-8"?>
<!-- Generator: Adobe Illustrator 23.0.2, SVG Export Plug-In . SVG Version: 6.00 Build 0)  -->
<svg version="1.1" id="Capa_1" xmlns="http://www.w3.org/2000/svg" xmlns:xlink="http://www.w3.org/1999/xlink" x="0px" y="0px"
	 viewBox="0 0 600 600" style="enable-background:new 0 0 600 600;" xml:space="preserve">
<style type="text/css">
	.st0{fill:#FFFF00;}
</style>
<g>
	<path class="st0" d="M598.4,143.4c-6.9-50.7-31.7-90.6-75-118c-42-26.6-87.4-32-134.9-17.6c-25.1,7.6-46.8,21.1-65.3,39.5
		c-2.2,2.2-4.5,2.9-7.4,2.9c-79.5-0.1-159-0.1-238.5,0C33.5,50.2,0.4,83.3,0.4,127c0,65.9,0,131.9,0,197.8c0,0,0,0,0,0
		c0,59.8-0.1,119.6,0.1,179.3c0,12.2-0.9,24.3,1.6,36.5C9,574,40.4,599.9,74.4,599.9c38.6,0,77.2,0,115.8,0
		c94.4,0,188.7-0.1,283.1,0c42.3,0.1,76.3-33.5,76.3-75.8c0-76.9,0-153.9,0-230.8c0-2.8,0.5-5.1,2.2-7.4
		c13.3-19.3,26.1-38.9,35.1-60.7C597.6,198.9,602.2,171.6,598.4,143.4z M330.6,304.4c2-2.1,3.1-2.5,5.1,0.2
		c21.3,30.4,41.3,61.6,55,96.3c5.5,13.9,10.2,28.2,13.7,42.7c0.2,0.6,0.5,1.3-0.3,2.5c-7.5-7.7-14.8-15.3-22.3-22.7
		c-27.2-27.3-54.5-54.7-81.8-81.9c-2.5-2.5-2.9-3.9-0.1-6.5C310.3,325,320.5,314.7,330.6,304.4z M52.8,511.5c-0.5,0.5-1.1,1-1.8,1.5
		c-1.1-1.6-0.6-3.1-0.6-4.5c0-127.1,0-254.2,0-381.2c0-17,10.1-27,27-27c68.4,0,136.7,0,205.1,0c5.1,0,5,0,3.2,4.7
		c-12.9,34.5-14.3,69.4-3.4,104.8c5.1,16.6,12.8,32,21.6,46.9c1.2,2,1.3,3.3-0.5,5.1c-34.6,34.4-69.2,68.8-103.7,103.2
		c-34,34-68,68.1-102,102.1C82.7,481.9,67.7,496.7,52.8,511.5z M87.6,549.6c-0.3-0.4-0.6-0.8-1-1.2c3.3-2.9,6.7-5.6,9.8-8.7
		c54-54,108-108,161.9-162.1c2.6-2.6,3.9-3.2,6.8-0.2c38.1,38.4,76.4,76.7,114.7,115c18.2,18.2,36.4,36.4,54.5,54.6
		c0.7,0.7,1.8,1.2,1.8,2.7C319.8,549.6,203.7,549.6,87.6,549.6z M458.6,500.3c-7.7-7.7-15.3-15.4-23-23.1c-0.6-0.6-1.6-1.1-1.4-2.5
		c3.1,0.2,6.3,0.2,9.4-0.4c15-2.9,22.4-13.1,25.6-27.1c6-26.1,15.4-50.9,27.7-74.7c0.6-1.2,0.9-2.5,2.1-3.4c1.2,0.8,0.6,2,0.6,2.9
		c0,50.5,0,101,0.1,151.5c0,3.7-0.7,7.1-1.8,10.6c-1,3.1-2,3.5-4.4,1C482,523.6,470.3,511.9,458.6,500.3z M527.3,232.7
		c-11.9,19.7-25.8,38.1-38.3,57.5c-20.4,31.7-37.6,65.1-51.6,100.8c-4.5-10.4-8.7-20.4-13.1-30.2c-14.6-32.2-32.4-62.5-52.7-91.4
		c-12.2-17.4-24.4-34.9-33.8-54.1c-14.2-29-17.5-59.1-6.5-89.6c15.4-42.2,45.9-67.6,90.5-74.1c39.7-5.7,73.5,7.3,100.2,37.2
		c16.4,18.3,25,40.2,27.1,64.8C551.6,182.7,542,208.3,527.3,232.7z"/>
	<path class="st0" d="M186.9,265.5c23.5-13.8,35.9-34.5,38.3-61.5c0.3-3.1-0.7-3.9-3.7-3.9c-11.1,0.2-22.3,0.1-33.4,0.1c0,0,0,0,0,0
		c-11.3,0-22.5,0.1-33.8-0.1c-3.5-0.1-4.3,1.1-4.2,4.3c0.2,5.8,0.2,11.5,0,17.3c-0.1,2.8,0.7,3.6,3.6,3.6c11.8-0.2,23.6-0.1,35.4,0
		c1,0,2.4-0.6,2.9,0.5c0.5,1.1-0.6,1.9-1.2,2.8c-8,11.2-18.5,18.5-32.2,20.7c-20.6,3.2-37.3-3.9-49.3-20.8
		c-12-16.8-12.1-38.3-1.4-54.9c17.1-26.3,51.3-31.2,75-10.6c1.7,1.5,2.6,2,4.5,0c4.5-4.8,9.1-9.4,13.9-13.9c1.8-1.7,1.5-2.6-0.1-4.1
		c-25.5-23.9-66.4-26.4-94.5-5.9c-31.8,23.3-40.6,64.3-21.3,98.8C105.1,272.9,152.3,285.8,186.9,265.5z"/>
	<path class="st0" d="M437,125.3c-21,0.2-37.4,16.8-37.2,37.7c0.2,21,17,37.3,38.2,37.2c20.9-0.2,37.1-17.4,36.4-39.7
		C474,141.3,457.5,124.8,437,125.3z"/>
</g>
</svg>
